<?xml version="1.0" encoding="UTF-8" standalone="no"?>
<svg
   xmlns:dc="http://purl.org/dc/elements/1.1/"
   xmlns:cc="http://creativecommons.org/ns#"
   xmlns:rdf="http://www.w3.org/1999/02/22-rdf-syntax-ns#"
   xmlns:svg="http://www.w3.org/2000/svg"
   xmlns="http://www.w3.org/2000/svg"
   viewBox="0 0 470.22501 160.8125"
   height="160.8125"
   width="470.22501"
   xml:space="preserve"
   version="1.1"
   id="svg2"><metadata
     id="metadata8"><rdf:RDF><cc:Work
         rdf:about=""><dc:format>image/svg+xml</dc:format><dc:type
           rdf:resource="http://purl.org/dc/dcmitype/StillImage" /></cc:Work></rdf:RDF></metadata><defs
     id="defs6"><clipPath
       id="clipPath18"
       clipPathUnits="userSpaceOnUse"><path
         id="path20"
         d="m 0,0 3761.85,0 0,1286 L 0,1286 0,0 Z" /></clipPath></defs><g
     transform="matrix(1.25,0,0,-1.25,0,160.8125)"
     id="g10"><g
       transform="scale(0.1,0.1)"
       id="g12"><g
         id="g14"><g
           clip-path="url(#clipPath18)"
           id="g16"><path
             id="path22"
             style="fill:#231f20;fill-opacity:1;fill-rule:nonzero;stroke:none"
             d="m 1626.44,1209.16 -28.55,-127.23 -27.28,126.5 -0.17,0.73 -74.83,0 -25.84,-125.63 -29.96,124.93 -0.18,0.7 -83.66,0 64.59,-206.92 0.2,-0.65 81.9,0 30.18,124.98 29.21,-124.28 0.16,-0.7 81.9,0 65.62,206.35 0.38,1.22 -83.67,0" /><path
             id="path24"
             style="fill:#231f20;fill-opacity:1;fill-rule:nonzero;stroke:none"
             d="m 1759.17,1129.49 c 3.84,21.65 17.06,32.63 39.32,32.63 18.81,0 33.09,-13.97 33.54,-32.63 l -72.86,0 z m 150.05,-41.75 c 0,41.06 -9.46,72.5 -28.09,93.47 -19.52,21.96 -49.74,33.11 -89.78,33.11 -31.12,0 -59.3,-11.42 -79.35,-32.14 -19.47,-20.13 -30.19,-47.61 -30.19,-77.39 0,-65.84 45.63,-108.356 116.28,-108.356 52.14,0 92.04,24.526 106.72,65.636 l 0.45,1.24 -75.17,0 -0.28,-0.42 c -5.53,-8.67 -18.14,-14.26 -32.11,-14.26 -22.11,0 -36.62,14.26 -39.02,38.18 l 150.54,0 0,0.93" /><path
             id="path26"
             style="fill:#231f20;fill-opacity:1;fill-rule:nonzero;stroke:none"
             d="m 1908.18,1001.59 80.3516,0 0,284.883 -80.3516,0 0,-284.883 z" /><path
             id="path28"
             style="fill:#231f20;fill-opacity:1;fill-rule:nonzero;stroke:none"
             d="m 2005.3,1001.59 80.3477,0 0,284.883 -80.3477,0 0,-284.883 z" /><path
             id="path30"
             style="fill:#231f20;fill-opacity:1;fill-rule:nonzero;stroke:none"
             d="m 2227.79,1085.48 -0.09,-0.84 c -1.42,-14.54 -12.04,-29.27 -29.59,-29.27 -29.58,0 -33.57,25.18 -33.57,49.81 0,24.82 3.99,50.2 33.57,50.2 7.9,0 14.55,-2.24 19.21,-6.52 4.75,-4.02 7.58,-10.34 8.4,-18.79 l 0.06,-0.84 76.4,0 -0.09,1 c -4.35,51.87 -44.79,84.09 -105.57,84.09 -65.09,0 -112.31,-45.89 -112.31,-109.14 0,-63.02 47.22,-108.746 112.31,-108.746 28.12,0 52.98,7.876 71.92,22.796 20.13,15.92 32.58,38.48 36.03,65.2 l 0.12,1.05 -76.8,0" /><path
             id="path32"
             style="fill:#231f20;fill-opacity:1;fill-rule:nonzero;stroke:none"
             d="m 2411.8,1055.37 c -22.03,0 -32.76,16.43 -32.76,50.2 0,33.51 10.73,49.81 32.76,49.81 22.04,0 32.76,-16.3 32.76,-49.81 0,-33.77 -10.72,-50.2 -32.76,-50.2 z m 85.76,126.14 c -19.91,21.46 -49.56,32.81 -85.76,32.81 -36.2,0 -65.85,-11.35 -85.76,-32.81 -17.63,-19 -27.34,-45.97 -27.34,-75.94 0,-29.98 9.71,-57.04 27.34,-76.14 19.93,-21.6 49.59,-32.996 85.76,-32.996 36.17,0 65.84,11.396 85.76,32.996 17.65,19.1 27.36,46.16 27.36,76.14 0,29.97 -9.71,56.94 -27.36,75.94" /><path
             id="path34"
             style="fill:#231f20;fill-opacity:1;fill-rule:nonzero;stroke:none"
             d="m 2793.55,1214.32 c -44.65,0 -62.86,-22.68 -68.84,-30.12 -0.38,-0.48 -0.74,-0.93 -1.05,-1.3 -10.77,21.69 -35.59,31.42 -55.75,31.42 -30.89,0 -52.3,-10.03 -67.25,-31.55 l 0,26.39 -77.57,0 0,-207.57 80.33,0 0,112.3 c 0,24.17 8.38,35.94 25.63,35.94 22.97,0 24.84,-16.29 24.84,-35.94 l 0,-112.3 80.35,0 0,112.3 c 0,24.17 8.37,35.94 25.62,35.94 22.97,0 24.84,-16.29 24.84,-35.94 l 0,-112.3 80.33,0 0,142.05 c 0,34.16 -18.78,70.68 -71.48,70.68" /><path
             id="path36"
             style="fill:#231f20;fill-opacity:1;fill-rule:nonzero;stroke:none"
             d="m 2940.21,1129.49 c 3.85,21.65 17.07,32.63 39.32,32.63 18.81,0 33.09,-13.97 33.55,-32.63 l -72.87,0 z m 150.05,-41.75 c 0,41.06 -9.46,72.5 -28.09,93.47 -19.52,21.96 -49.74,33.11 -89.77,33.11 -31.14,0 -59.31,-11.42 -79.36,-32.14 -19.46,-20.13 -30.18,-47.61 -30.18,-77.39 0,-65.84 45.65,-108.356 116.27,-108.356 52.14,0 92.05,24.526 106.72,65.636 l 0.45,1.24 -75.17,0 -0.28,-0.42 c -5.53,-8.67 -18.13,-14.26 -32.11,-14.26 -22.11,0 -36.62,14.26 -39.02,38.18 l 150.54,0 0,0.93" /><path
             id="path38"
             style="fill:#231f20;fill-opacity:1;fill-rule:nonzero;stroke:none"
             d="m 1454.74,754.949 0,28.028 113.17,0 0,58.925 -113.17,0 0,28.028 124.57,0 0,63.308 -200.29,0 0,-241.597 203.99,0 0,63.308 -128.27,0" /><path
             id="path40"
             style="fill:#231f20;fill-opacity:1;fill-rule:nonzero;stroke:none"
             d="m 1672.59,869.93 31.98,0 c 18.6,0 34,-1.668 34,-22.239 0,-22.703 -18.16,-24.578 -38.37,-24.578 l -27.61,0 0,46.817 z m 48.77,63.308 -124.49,0 0,-241.597 75.72,0 0,72.515 42.73,0 c 60.35,0 94.95,31.438 94.95,86.235 0,39.898 -27.83,82.847 -88.91,82.847" /><path
             id="path42"
             style="fill:#231f20;fill-opacity:1;fill-rule:nonzero;stroke:none"
             d="m 1949.55,839.52 c -7.26,2.019 -14.51,3.769 -21.52,5.468 -24.84,5.965 -46.31,11.145 -47.31,23.867 0,14.102 19.59,15.196 25.6,15.196 8.34,0 16.11,-2.149 21.32,-5.906 6.65,-4.446 9.46,-10.559 8.31,-18.207 l -0.15,-1.075 71.88,0 -0.03,0.957 c -2.39,68.86 -64.29,79.133 -100.99,79.133 -45.03,0 -97.63,-20.996 -97.63,-80.168 0,-47.351 41.38,-58.98 77.88,-69.273 l 4.04,-1.125 c 41.3,-11.746 51.05,-14.973 51.05,-26.653 0,-19.375 -22.68,-20.886 -29.63,-20.886 -18.65,0 -30.22,5.664 -34.39,16.843 -1.71,4.465 -2.62,9.817 -2.62,15.469 l 0,0.93 -75.76,0 0.02,-0.93 c 0.74,-84.773 95.55,-87.215 106.37,-87.215 21.16,0 51.52,3.118 75.91,18.008 23.76,14.512 35.82,36.555 35.82,65.508 0,45.09 -34.45,60.715 -68.17,70.059" /><path
             id="path44"
             style="fill:#231f20;fill-opacity:1;fill-rule:nonzero;stroke:none"
             d="m 2095.88,874.305 33.65,0 c 25.35,0 35.69,-6.653 35.69,-22.91 0,-20.528 -18.05,-22.911 -31.64,-22.911 l -37.7,0 0,45.821 z m 152.33,-181.242 c -5.36,8.808 -6.58,29.296 -7.4,42.875 -0.18,3.125 -0.36,5.898 -0.54,8.101 -2.66,29.68 -14.91,51.262 -33.71,59.66 25.33,10.696 34.38,38.828 34.38,60.117 0,21.582 -8.19,39.551 -23.73,51.973 -14.06,11.262 -33.75,17.449 -55.44,17.449 l -141.61,0 0,-241.597 75.72,0 0,83.613 38.36,0 c 28.26,0 30.32,-23.203 32.33,-45.82 0.9,-11.329 2.19,-24.465 6.08,-37.141 l 0.2,-0.652 76.22,0 -0.86,1.422" /><path
             id="path46"
             style="fill:#231f20;fill-opacity:1;fill-rule:nonzero;stroke:none"
             d="m 2402.02,787.508 -0.14,-0.742 c -5.18,-26.758 -17.27,-39.207 -38.03,-39.207 -13.46,0 -44.75,6.316 -44.75,64.879 0,58.566 31.29,64.894 44.75,64.894 30.03,0 36.44,-26.394 37.68,-34.48 l 0.12,-0.786 73.7,0 -0.12,1.028 c -6.61,62.375 -44.44,95.515 -109.38,95.859 -74.39,0 -122.47,-49.656 -122.47,-126.515 0,-35.602 11.33,-67.547 31.93,-89.977 21.94,-23.898 53.25,-36.516 90.54,-36.516 41.51,0 67.35,17.403 81.72,31.993 18.22,18.527 28.68,43.542 28.68,68.64 l 0,0.93 -74.23,0" /><path
             id="path48"
             style="fill:#231f20;fill-opacity:1;fill-rule:nonzero;stroke:none"
             d="m 2700.75,775.547 -0.09,-0.844 c -1.43,-14.551 -12.04,-29.285 -29.6,-29.285 -29.57,0 -33.57,25.187 -33.57,49.812 0,24.829 4,50.208 33.57,50.208 7.91,0 14.55,-2.239 19.22,-6.512 4.75,-4.035 7.57,-10.356 8.4,-18.801 l 0.06,-0.84 76.4,0 -0.09,1.004 c -4.35,51.867 -44.8,84.082 -105.57,84.082 -65.09,0 -112.32,-45.894 -112.32,-109.141 0,-63.015 47.23,-108.738 112.32,-108.738 28.11,0 52.97,7.879 71.92,22.793 20.12,15.918 32.58,38.485 36.02,65.203 l 0.12,1.059 -76.79,0" /><path
             id="path50"
             style="fill:#231f20;fill-opacity:1;fill-rule:nonzero;stroke:none"
             d="m 2852.56,819.539 c 3.84,21.66 17.06,32.637 39.32,32.637 18.81,0 33.08,-13.965 33.54,-32.637 l -72.86,0 z m 150.04,-41.738 c 0,41.047 -9.45,72.5 -28.08,93.469 -19.52,21.96 -49.73,33.101 -89.78,33.101 -31.12,0 -59.3,-11.414 -79.35,-32.144 -19.47,-20.122 -30.19,-47.598 -30.19,-77.375 0,-65.84 45.63,-108.36 116.28,-108.36 52.14,0 92.04,24.531 106.72,65.637 l 0.46,1.226 -75.19,0 -0.26,-0.41 c -5.54,-8.672 -18.15,-14.265 -32.11,-14.265 -22.11,0 -36.63,14.265 -39.04,38.191 l 150.54,0 0,0.93" /><path
             id="path52"
             style="fill:#231f20;fill-opacity:1;fill-rule:nonzero;stroke:none"
             d="m 3203.66,886.961 c -12.69,11.223 -30.34,17.41 -49.72,17.41 -30.25,0 -51.53,-9.668 -66.86,-30.43 l 0,25.278 -77.57,0 0,-207.578 80.35,0 0,109.547 c 0,33.671 19.03,38.695 30.38,38.695 20.99,0 24.83,-13.313 24.83,-39.504 l 0,-108.738 80.35,0 0,142.047 c 0,22.238 -7.52,40.656 -21.76,53.273" /><path
             id="path54"
             style="fill:#231f20;fill-opacity:1;fill-rule:nonzero;stroke:none"
             d="m 3380.46,849.012 0,50.207 -42.02,0 0,62.625 -80.34,0 0,-62.625 -34.88,0 0,-50.207 34.88,0 0,-97.383 c 0,-54.816 34.16,-62.371 71.07,-62.371 8.47,0 17.31,0.613 25.86,1.219 8.59,0.605 16.7,1.164 24.5,1.164 l 0.93,0 0,61.464 -1.06,-0.148 c -5.79,-0.781 -11.76,-1.184 -17.72,-1.184 -19.75,0 -23.24,8.528 -23.24,26.411 l 0,70.828 42.02,0" /><path
             id="path56"
             style="fill:#231f20;fill-opacity:1;fill-rule:nonzero;stroke:none"
             d="m 3549.47,901.188 c -8.19,2.152 -15.78,3.183 -23.25,3.183 -26.19,0 -44.07,-11.324 -57.73,-36.695 l 0,31.543 -77.18,0 0,-207.578 80.35,0 0,82.195 c 0,41.809 14.83,61.301 46.64,61.301 16.09,0 23.15,-2.485 30.62,-5.11 l 1.24,-0.429 0,71.386 -0.69,0.204" /><path
             id="path58"
             style="fill:#231f20;fill-opacity:1;fill-rule:nonzero;stroke:none"
             d="m 3611.8,819.539 c 3.85,21.66 17.06,32.637 39.32,32.637 18.81,0 33.09,-13.965 33.54,-32.637 l -72.86,0 z m 150.05,-41.738 c 0,41.047 -9.45,72.5 -28.09,93.469 -19.52,21.96 -49.73,33.101 -89.78,33.101 -31.13,0 -59.3,-11.414 -79.35,-32.144 -19.46,-20.122 -30.19,-47.598 -30.19,-77.375 0,-65.84 45.63,-108.36 116.28,-108.36 52.13,0 92.04,24.531 106.71,65.637 l 0.46,1.226 -75.17,0 -0.28,-0.41 c -5.53,-8.672 -18.13,-14.265 -32.1,-14.265 -22.11,0 -36.63,14.265 -39.03,38.191 l 150.54,0 0,0.93" /><path
             id="path60"
             style="fill:#c71a50;fill-opacity:1;fill-rule:nonzero;stroke:none"
             d="m 1651.36,594.434 c -44.66,0 -62.87,-22.676 -68.84,-30.129 -0.39,-0.469 -0.75,-0.926 -1.06,-1.289 -10.76,21.687 -35.58,31.418 -55.74,31.418 -30.89,0 -52.31,-10.039 -67.26,-31.543 l 0,26.382 -77.56,0 0,-207.578 80.33,0 0,112.317 c 0,24.16 8.37,35.926 25.62,35.926 22.97,0 24.84,-16.278 24.84,-35.926 l 0,-112.317 80.35,0 0,112.317 c 0,24.16 8.38,35.926 25.62,35.926 22.97,0 24.85,-16.278 24.85,-35.926 l 0,-112.317 80.33,0 0,142.051 c 0,34.172 -18.78,70.688 -71.48,70.688" /><path
             id="path62"
             style="fill:#c71a50;fill-opacity:1;fill-rule:nonzero;stroke:none"
             d="m 1807.54,509.598 c 3.84,21.648 17.06,32.636 39.32,32.636 18.81,0 33.09,-13.964 33.54,-32.636 l -72.86,0 z m 150.05,-41.739 c 0,41.043 -9.46,72.5 -28.09,93.457 -19.52,21.961 -49.73,33.118 -89.78,33.118 -31.12,0 -59.3,-11.426 -79.35,-32.153 -19.47,-20.125 -30.2,-47.605 -30.2,-77.383 0,-65.828 45.64,-108.355 116.29,-108.355 52.14,0 92.04,24.527 106.72,65.633 l 0.45,1.242 -75.17,0 -0.28,-0.422 c -5.54,-8.66 -18.14,-14.258 -32.1,-14.258 -22.11,0 -36.63,14.258 -39.03,38.196 l 150.54,0 0,0.925" /><path
             id="path64"
             style="fill:#c71a50;fill-opacity:1;fill-rule:nonzero;stroke:none"
             d="m 2102.85,485.691 c 0,-33.308 -11.3,-50.214 -33.57,-50.214 -22.27,0 -33.57,16.906 -33.57,50.214 0,22.727 5.83,49.805 33.57,49.805 27.74,0 33.57,-27.078 33.57,-49.805 z m -2.8,180.887 0,-98.973 c -12.18,16.829 -33.03,26.829 -56.14,26.829 -31.51,0 -55.22,-12.043 -70.44,-35.813 -14.96,-23.308 -18.09,-52.078 -18.09,-72.129 0,-27.39 7.83,-54.492 21.51,-74.363 16.02,-23.293 38.79,-35.586 65.83,-35.586 38.5,0 50.76,14.668 60.13,26.973 l 0,-21.821 77.55,0 0,284.883 -80.35,0" /><path
             id="path66"
             style="fill:#c71a50;fill-opacity:1;fill-rule:nonzero;stroke:none"
             d="m 2198.8,609.617 80.3398,0 0,56.9609 -80.3398,0 0,-56.9609 z" /><path
             id="path68"
             style="fill:#c71a50;fill-opacity:1;fill-rule:nonzero;stroke:none"
             d="m 2198.8,381.695 80.3398,0 0,207.578 -80.3398,0 0,-207.578 z" /><path
             id="path70"
             style="fill:#c71a50;fill-opacity:1;fill-rule:nonzero;stroke:none"
             d="m 2432.78,465.605 -0.09,-0.839 c -1.42,-14.551 -12.04,-29.289 -29.59,-29.289 -29.58,0 -33.57,25.183 -33.57,49.816 0,24.812 3.99,50.203 33.57,50.203 7.9,0 14.55,-2.234 19.21,-6.523 4.75,-4.024 7.58,-10.34 8.4,-18.789 l 0.06,-0.84 76.4,0 -0.09,1.008 c -4.35,51.863 -44.79,84.082 -105.57,84.082 -65.09,0 -112.31,-45.903 -112.31,-109.141 0,-63.02 47.22,-108.75 112.31,-108.75 28.12,0 52.98,7.891 71.92,22.801 20.12,15.918 32.58,38.484 36.03,65.195 l 0.12,1.066 -76.8,0" /><path
             id="path72"
             style="fill:#c71a50;fill-opacity:1;fill-rule:nonzero;stroke:none"
             d="m 2609.27,424.781 c -14.15,0 -23.66,9.367 -23.66,18.086 0,13.137 8.35,17.324 25.85,21.289 9.98,2.231 20.45,4.907 29.77,9.328 l 0,-17.461 c -1.07,-19.558 -13.02,-31.242 -31.96,-31.242 z m 118.51,-41.648 c -8.64,12.949 -9.37,30.254 -9.37,45.476 l 0,85.364 c 0,19.609 0.02,39.882 -12.38,55.105 -13.9,17.063 -42.05,25.356 -86.07,25.356 -30.71,0 -53.78,-3.918 -70.55,-11.985 -22.95,-10.781 -35.11,-29.726 -36.2,-56.301 l -0.04,-0.964 74.79,0 0.04,0.898 c 0.42,9.18 5.69,20.129 28.41,20.129 12,0 24.82,-4.758 24.82,-18.106 0,-12.445 -10.2,-15.375 -20.63,-17.328 -6.36,-1.179 -13.64,-2.129 -21.35,-3.14 -40.32,-5.246 -95.56,-12.446 -95.56,-67.934 0,-39.558 27.47,-63.16 73.47,-63.16 29.73,0 51.32,7.812 65.99,23.875 -0.1,-5.535 1.07,-12.969 2.89,-18.098 l 0.21,-0.625 82.48,0 -0.95,1.438" /><path
             id="path74"
             style="fill:#c71a50;fill-opacity:1;fill-rule:nonzero;stroke:none"
             d="m 2735.6,381.695 80.3477,0 0,284.883 -80.3477,0 0,-284.883 z" /><path
             id="path76"
             style="fill:#c71a50;fill-opacity:1;fill-rule:nonzero;stroke:none"
             d="m 1449.92,199.66 c 3.84,21.649 17.06,32.629 39.32,32.629 18.81,0 33.09,-13.969 33.54,-32.629 l -72.86,0 z m 150.04,-41.738 c 0,41.039 -9.45,72.5 -28.08,93.457 -19.52,21.961 -49.73,33.101 -89.78,33.101 -31.12,0 -59.3,-11.421 -79.35,-32.14 -19.47,-20.129 -30.18,-47.61 -30.18,-77.379 0,-65.832 45.64,-108.3594 116.27,-108.3594 52.14,0 92.04,24.5273 106.72,65.6284 l 0.45,1.239 -75.18,0 -0.27,-0.418 c -5.54,-8.672 -18.14,-14.25 -32.1,-14.25 -22.11,0 -36.63,14.25 -39.03,38.187 l 150.53,0 0,0.934" /><path
             id="path78"
             style="fill:#c71a50;fill-opacity:1;fill-rule:nonzero;stroke:none"
             d="m 1801.02,267.078 c -12.69,11.211 -30.36,17.402 -49.74,17.402 -30.23,0 -51.52,-9.671 -66.83,-30.429 l 0,25.277 -77.59,0 0,-207.5663 80.36,0 0,109.5393 c 0,33.668 19.03,38.699 30.37,38.699 21,0 24.84,-13.309 24.84,-39.5 l 0,-108.7383 80.35,0 0,142.0473 c 0,22.23 -7.52,40.64 -21.76,53.269" /><path
             id="path80"
             style="fill:#c71a50;fill-opacity:1;fill-rule:nonzero;stroke:none"
             d="m 1972.79,186.051 c 0,-24.621 -3.71,-49.813 -31.18,-49.813 -29.9,0 -34.36,30.973 -34.36,49.41 0,29.454 17.45,39.903 32.38,39.903 24.44,0 33.16,-20.422 33.16,-39.5 z m -1.98,93.277 0,-23.379 c -8.96,18.172 -28.41,28.531 -53.78,28.531 -27.94,0 -51.21,-10.16 -67.31,-29.402 -14.7,-17.598 -22.8,-42.387 -22.8,-69.828 0,-28.988 7.41,-53.672 21.45,-71.371 15.48,-19.5274 38.81,-29.8282 67.47,-29.8282 22.86,0 41.82,9.5586 54.97,27.6602 l 0,-17.2305 c 0,-21.3203 -7.85,-46.2422 -30,-46.2422 -11.56,0 -19.92,11.2226 -22.2,14.6523 l -0.89,1.3282 c -1.36,2.0195 -2.77,4.1093 -3.41,5.6406 l -0.21,0.5898 -79.39,0 0.13,-1.0703 C 1840.77,23.3516 1877.22,0 1943.2,0 c 42.81,0 73.21,11.5117 90.36,34.2109 15.75,20.8477 17.58,47.0899 17.58,65.0274 l 0,180.0897 -80.33,0" /><path
             id="path82"
             style="fill:#c71a50;fill-opacity:1;fill-rule:nonzero;stroke:none"
             d="m 2066.77,71.7617 80.3398,0 0,207.566 -80.3398,0 0,-207.566 z" /><path
             id="path84"
             style="fill:#c71a50;fill-opacity:1;fill-rule:nonzero;stroke:none"
             d="m 2066.77,299.676 80.3398,0 0,56.9648 -80.3398,0 0,-56.9648 z" /><path
             id="path86"
             style="fill:#c71a50;fill-opacity:1;fill-rule:nonzero;stroke:none"
             d="m 2360.02,267.078 c -12.69,11.211 -30.34,17.402 -49.71,17.402 -30.25,0 -51.54,-9.671 -66.86,-30.429 l 0,25.277 -77.58,0 0,-207.5663 80.35,0 0,109.5393 c 0,33.668 19.03,38.699 30.38,38.699 20.99,0 24.84,-13.309 24.84,-39.5 l 0,-108.7383 80.35,0 0,142.0473 c 0,22.23 -7.52,40.64 -21.77,53.269" /><path
             id="path88"
             style="fill:#c71a50;fill-opacity:1;fill-rule:nonzero;stroke:none"
             d="m 2467.24,199.66 c 3.84,21.649 17.06,32.629 39.32,32.629 18.8,0 33.08,-13.969 33.54,-32.629 l -72.86,0 z m 150.04,-41.738 c 0,41.039 -9.44,72.5 -28.08,93.457 -19.52,21.961 -49.73,33.101 -89.78,33.101 -31.13,0 -59.3,-11.421 -79.35,-32.14 -19.47,-20.129 -30.19,-47.61 -30.19,-77.379 0,-65.832 45.63,-108.3594 116.28,-108.3594 52.13,0 92.04,24.5273 106.71,65.6284 l 0.46,1.239 -75.17,0 -0.28,-0.418 c -5.53,-8.672 -18.14,-14.25 -32.11,-14.25 -22.1,0 -36.62,14.25 -39.03,38.187 l 150.54,0 0,0.934" /><path
             id="path90"
             style="fill:#c71a50;fill-opacity:1;fill-rule:nonzero;stroke:none"
             d="m 2692.83,199.66 c 3.83,21.649 17.06,32.629 39.31,32.629 18.82,0 33.1,-13.969 33.55,-32.629 l -72.86,0 z m 150.04,-41.738 c 0,41.039 -9.45,72.5 -28.08,93.457 -19.52,21.961 -49.74,33.101 -89.79,33.101 -31.12,0 -59.29,-11.421 -79.34,-32.14 -19.48,-20.129 -30.18,-47.61 -30.18,-77.379 0,-65.832 45.64,-108.3594 116.26,-108.3594 52.14,0 92.04,24.5273 106.72,65.6284 l 0.46,1.239 -75.18,0 -0.27,-0.418 c -5.54,-8.672 -18.14,-14.25 -32.11,-14.25 -22.11,0 -36.62,14.25 -39.02,38.187 l 150.53,0 0,0.934" /><path
             id="path92"
             style="fill:#c71a50;fill-opacity:1;fill-rule:nonzero;stroke:none"
             d="m 3007.94,281.301 c -8.18,2.148 -15.77,3.179 -23.24,3.179 -26.19,0 -44.07,-11.32 -57.72,-36.691 l 0,31.539 -77.19,0 0,-207.5663 80.35,0 0,82.1793 c 0,41.821 14.82,61.297 46.64,61.297 16.08,0 23.15,-2.468 30.62,-5.097 l 1.24,-0.43 0,71.391 -0.7,0.199" /><path
             id="path94"
             style="fill:#c71a50;fill-opacity:1;fill-rule:nonzero;stroke:none"
             d="m 3019.07,71.7617 80.3516,0 0,207.566 -80.3516,0 0,-207.566 z" /><path
             id="path96"
             style="fill:#c71a50;fill-opacity:1;fill-rule:nonzero;stroke:none"
             d="m 3019.07,299.676 80.3516,0 0,56.9648 -80.3516,0 0,-56.9648 z" /><path
             id="path98"
             style="fill:#c71a50;fill-opacity:1;fill-rule:nonzero;stroke:none"
             d="m 3312.33,267.078 c -12.7,11.211 -30.36,17.402 -49.74,17.402 -30.22,0 -51.52,-9.671 -66.83,-30.429 l 0,25.277 -77.58,0 0,-207.5663 80.35,0 0,109.5393 c 0,33.668 19.02,38.699 30.37,38.699 21,0 24.84,-13.309 24.84,-39.5 l 0,-108.7383 80.36,0 0,142.0473 c 0,22.23 -7.52,40.64 -21.77,53.269" /><path
             id="path100"
             style="fill:#c71a50;fill-opacity:1;fill-rule:nonzero;stroke:none"
             d="m 3488.07,186.051 c 0,-24.621 -3.71,-49.813 -31.17,-49.813 -29.91,0 -34.37,30.973 -34.37,49.41 0,29.454 17.44,39.903 32.38,39.903 24.44,0 33.16,-20.422 33.16,-39.5 z m -1.98,93.277 0,-23.379 c -8.97,18.172 -28.41,28.531 -53.78,28.531 -27.94,0 -51.21,-10.16 -67.32,-29.402 -14.69,-17.598 -22.79,-42.387 -22.79,-69.828 0,-28.988 7.41,-53.672 21.45,-71.371 15.48,-19.5274 38.8,-29.8282 67.48,-29.8282 22.85,0 41.8,9.5586 54.96,27.6602 l 0,-17.2305 c 0,-21.3203 -7.85,-46.2422 -30,-46.2422 -11.57,0 -19.92,11.2226 -22.2,14.6523 l -0.89,1.3282 c -1.37,2.0195 -2.77,4.1093 -3.41,5.6406 l -0.21,0.5898 -79.39,0 0.13,-1.0703 C 3356.06,23.3516 3392.49,0 3458.48,0 c 42.81,0 73.21,11.5117 90.36,34.2109 15.75,20.8477 17.58,47.0899 17.58,65.0274 l 0,180.0897 -80.33,0" /><path
             id="path102"
             style="fill:#c71a50;fill-opacity:1;fill-rule:nonzero;stroke:none"
             d="M 614.598,1212.57 C 275.168,1212.57 0,937.41 0,597.969 0,413.848 81.1172,248.781 209.398,136.141 l 246.118,360.07 c -18.836,29.383 -29.903,64.258 -29.903,101.758 0,104.383 84.614,188.992 188.985,188.992 104.379,0 188.988,-84.609 188.988,-188.992 0,-34.641 -9.477,-66.992 -25.742,-94.906 L 1032.34,147.602 c 120.96,112.226 196.85,272.347 196.85,450.367 0,339.441 -275.159,614.601 -614.592,614.601" /><path
             id="path104"
             style="fill:#c71a50;fill-opacity:1;fill-rule:nonzero;stroke:none"
             d="m 614.598,717.422 c -65.973,0 -119.453,-53.481 -119.453,-119.453 0,-27.168 9.179,-52.153 24.468,-72.219 l 189.965,0 c 15.289,20.066 24.469,45.051 24.469,72.219 0,65.972 -53.477,119.453 -119.449,119.453" /></g></g></g></g></svg>
